<svg width="24" height="24" viewBox="0 0 24 32" fill="none" xmlns="http://www.w3.org/2000/svg">
<path fill-rule="evenodd" clip-rule="evenodd" d="M11.6855 31.9999C18.1392 31.9999 23.371 26.7131 23.371 20.1914C23.371 13.6698 18.1392 8.38293 11.6855 8.38293C5.23178 8.38293 0 13.6698 0 20.1914C0 26.7131 5.23178 31.9999 11.6855 31.9999ZM11.6855 25.4807C14.4708 25.4807 16.7287 23.1126 16.7287 20.1915C16.7287 17.2703 14.4708 14.9022 11.6855 14.9022C8.9002 14.9022 6.64228 17.2703 6.64228 20.1915C6.64228 23.1126 8.9002 25.4807 11.6855 25.4807Z" fill="#1C1C1F"/>
<path d="M11.766 8.14752C5.32975 8.14752 0.161682 13.1861 0.161682 19.711C0.161682 26.2358 5.32975 31.2744 11.766 31.2744C18.2023 31.2744 23.3704 26.2358 23.3704 19.711C23.3772 13.1793 18.2091 8.14752 11.766 8.14752ZM11.766 24.8723C8.91605 24.8723 6.72746 22.8132 6.72746 19.7041C6.72746 16.5951 8.91605 14.5361 11.766 14.5361C14.616 14.5361 16.8045 16.5951 16.8045 19.7041C16.8045 22.8132 14.616 24.8723 11.766 24.8723Z" fill="#1C1C1F"/>
<path d="M6.65923 0L3.13428 6.00672C6.07286 6.00672 10.0205 6.00672 12.9591 6.00672C14.1114 6.00672 15.2705 6.00672 16.4227 6.00672L12.8296 0H6.65923Z" fill="#F7B40D"/>
<path d="M20.7727 6.06125L17.2205 0H14.0433L17.6705 6.06125H20.7727Z" fill="#ED0394"/>
</svg>
